<svg id="Layer_1" data-name="Layer 1" xmlns="http://www.w3.org/2000/svg" viewBox="0 0 200 100"><defs><style>.cls-1{fill:#fff;}.cls-2{fill:#ccdb2a;}.cls-3{fill:#81bc41;}.cls-4{fill:#40ae49;}.cls-5{fill:#008345;}.cls-6{fill:#00a896;}.cls-7{fill:#43b5e3;}.cls-8{fill:#457bbe;}.cls-9{fill:#312a7e;}.cls-10{fill:#211646;}.cls-11{fill:#803d96;}.cls-12{fill:#9a268d;}.cls-13{fill:#8d1d59;}.cls-14{fill:#e81d76;}.cls-15{fill:#cc1f41;}.cls-16{fill:#b3282d;}.cls-17{fill:#e02726;}.cls-18{fill:#ed7623;}.cls-19{fill:#f5a81c;}.cls-20{fill:#ffcd00;}.cls-21{fill:#fcdc00;}</style></defs><title>hues-colors-100-200</title><rect class="cls-1" width="200" height="100"/><rect class="cls-1" width="200" height="100"/><polygon class="cls-2" points="200 100 200 72.32 186.81 100 200 100"/><polygon class="cls-3" points="187.81 100 200 73.32 200 45.44 174.52 100 187.81 100"/><polygon class="cls-4" points="175.52 100 200 46.44 200 18.55 162.23 100 175.52 100"/><polygon class="cls-5" points="149.94 100 163.23 100 200 19.55 200 0 195.65 0 149.94 100"/><polygon class="cls-6" points="137.65 100 150.94 100 196.65 0 183.36 0 137.65 100"/><polygon class="cls-7" points="125.36 100 138.65 100 184.36 0 171.07 0 125.36 100"/><polygon class="cls-8" points="113.07 100 126.36 100 172.07 0 158.78 0 113.07 100"/><polygon class="cls-9" points="100.78 100 114.07 100 159.78 0 146.49 0 100.78 100"/><polygon class="cls-10" points="101.78 100 147.49 0 134.2 0 88.49 100 101.78 100"/><polygon class="cls-11" points="89.49 100 135.2 0 121.92 0 76.2 100 89.49 100"/><polygon class="cls-12" points="77.2 100 122.92 0 109.63 0 63.92 100 77.2 100"/><polygon class="cls-13" points="64.92 100 110.63 0 97.34 0 51.63 100 64.92 100"/><polygon class="cls-14" points="52.63 100 98.34 0 85.05 0 39.34 100 52.63 100"/><polygon class="cls-15" points="40.34 100 86.05 0 72.76 0 27.05 100 40.34 100"/><polygon class="cls-16" points="28.05 100 73.76 0 60.47 0 14.76 100 28.05 100"/><polygon class="cls-17" points="15.76 100 61.47 0 48.18 0 2.47 100 15.76 100"/><polygon class="cls-18" points="49.18 0 35.89 0 0 79.71 0 100 3.47 100 49.18 0"/><polygon class="cls-19" points="0 80.71 36.89 0 23.6 0 0 52.82 0 80.71"/><polygon class="cls-20" points="0 53.82 24.6 0 12.31 0 0 26.94 0 53.82"/><polygon class="cls-21" points="0 26.94 12.31 0 0.02 0 0 0.05 0 26.94"/></svg>