<svg id="Layer_1" data-name="Layer 1" xmlns="http://www.w3.org/2000/svg" xmlns:xlink="http://www.w3.org/1999/xlink" viewBox="0 0 375.9 176.67"><defs><style>.cls-1{fill:none;}.cls-2{clip-path:url(#clip-path);}.cls-3{fill:#ed7623;}.cls-4{fill:#e02726;}.cls-5{fill:#f5a81c;}.cls-6{fill:#ffcd00;}.cls-7{fill:#fcdc00;}.cls-8{fill:#8d1d59;}.cls-9{fill:#9a268d;}.cls-10{fill:#e81d76;}.cls-11{fill:#cc1f41;}.cls-12{fill:#b3282d;}.cls-13{fill:#457bbe;}.cls-14{fill:#43b5e3;}.cls-15{fill:#312a7e;}.cls-16{fill:#211646;}.cls-17{fill:#803d96;}.cls-18{fill:#81bc41;}.cls-19{fill:#ccdb2a;}.cls-20{fill:#40ae49;}.cls-21{fill:#008345;}.cls-22{fill:#00a896;}</style><clipPath id="clip-path"><path class="cls-1" d="M373.13,124.91Q361.58,147.09,345.87,151a59.64,59.64,0,0,0,.92-9.47q0-11.1-6.7-29.92t-6.7-25.07a23.17,23.17,0,0,1,.58-5,23.28,23.28,0,0,0,.58-3.35c-.31-3.08-1.65-4.62-5-4.62-7.09,0-10.12,5.63-10.12,16.87V92.8c-7,10.94-12.95,21.48-22.71,31.65a37.9,37.9,0,0,1-5.22,2.31,16.85,16.85,0,0,0-7.51,6C282,135.54,281,139.62,281,145c0,.17,0,.33,0,.49a85.54,85.54,0,0,1-8.83,7.95q-14.67,11.43-28.77,11.43a21.12,21.12,0,0,1-10.11-2.19,11.84,11.84,0,0,1-5.58-5.78,32,32,0,0,1-1.86-5.66c-.28-1.37-.31-1.71-.31-1.71,15.39-8.19,28-15.49,39.13-25.36,9-7.94,10.26-13.62,9.77-21.61-.54-9-6.42-14.24-16.16-14.61-9.22-.36-20.55.92-33.56,15.74s-17,29.2-17,43.16a38,38,0,0,0,.78,7.84c-8.4,5.48-20.73,8.55-25.74,8.55h-.23c-4,0-6-3.3-6-8.54,0-4.31,1.1-10.35,3.31-17.44s4.44-13.53,6.7-19,3.39-8.44,3.39-8.75c0-3.7-4.24-6.36-12.71-7.9Q172.13,112.95,166,124.7a156.85,156.85,0,0,1-14.9,23.21q-8.78,11.44-14.79,11.43-6.93,0-6.93-13.86,0-9.71,5.2-23.11t10-20.56c-4-4-7.62-6-10.86-6q-5.78,0-13.4,19.29a131.47,131.47,0,0,0-5.61,17.33,94,94,0,0,1-13.68,18.09c-7.47,7.4-13.74,11.74-18.83,11.74H82c-4,0-6-3.11-6-8,0-3.08,1.58-9,4.74-17s4.74-14.87,4.74-20.26a25.86,25.86,0,0,0-4.85-15.65c-3.23-4.41-8.38-6.65-15.45-6.65a29.85,29.85,0,0,0-16.42,4.86A43.07,43.07,0,0,0,36.05,112a129.25,129.25,0,0,0-8.55,14.64q-3.48,7-5.9,13.5a72.14,72.14,0,0,1-2.89,7.17c0-.47,0-1.24-.11-2.32s-.12-1.92-.12-2.54q0-18.33,7.86-39,20.19-11.79,37.24-40.9t17-46.21A24.92,24.92,0,0,0,78.08,5.08Q75.52,0,71.08,0q-10.72,0-28,27.84T12.93,91.18Q0,126.68,0,147.32,0,158.65,2.31,166t7.16,7.39q6,0,11.79-9.82a120,120,0,0,0,9.82-21.48,88,88,0,0,1,10.85-21.49q6.82-9.83,14.68-9.82,8.31,0,8.31,9.7,0,4.86-3.35,16.87T58.22,154A15.27,15.27,0,0,0,63,165.69q4.8,4.51,13.46,4.51,13.86,0,26-11.79a83.45,83.45,0,0,0,10.3-12.26c0,.48,0,.94,0,1.41a28.36,28.36,0,0,0,5.08,16.86q5.08,7.16,12.71,7.16,5.31,0,11.09-4.27a48.28,48.28,0,0,0,9.47-9q3.69-4.74,8.78-12.59,0,4.38.12,7.16a35.79,35.79,0,0,0,1,6.7,18,18,0,0,0,2.54,6.24,13.67,13.67,0,0,0,4.73,4,15.21,15.21,0,0,0,7.51,1.73c8.4,0,23.7-6.41,34.19-13a25.59,25.59,0,0,0,5.74,8.21q8,7.78,22.52,7.79,18.51,0,35.72-12.64a80,80,0,0,0,8.25-7,32.93,32.93,0,0,0,6.4,12.33q7.69,9.36,23.78,9.36a38.46,38.46,0,0,0,19.29-4.74,27.27,27.27,0,0,0,12.08-14q22.63-3.47,32.11-31ZM52,44.39q13.05-21.13,18-23,0,9-12.35,31.66T31.19,88.41A214.78,214.78,0,0,1,52,44.39Zm185.44,65.49c8.05-8.93,15.42-12.22,20.78-11.62,4.52.5,6.3,4.64,6.3,7.56,0,6.66-3.12,11-13.11,19.32-9.78,8.11-17.42,12.53-26.36,18.41C225.06,128.91,229.4,118.81,237.45,109.88Zm73.37,56.39a14.69,14.69,0,0,1-12.59-6.35,24.48,24.48,0,0,1-4.58-14.67q0-5.55,3.21-6.24a52.41,52.41,0,0,0,12.23,11.2,45.32,45.32,0,0,0,16.62,7Q321.06,166.28,310.82,166.27Zm16.78-15.94a43.69,43.69,0,0,1-27.31-19.64q8.73-9.24,20-28.88.47,2.07,2.6,10t2.84,11.32q.71,3.34,1.65,9.24a68.42,68.42,0,0,1,.95,10.75A25,25,0,0,1,327.6,150.33Z"/></clipPath></defs><title>hues-store-logo</title><g id="_Clip_Group_" data-name="&lt;Clip Group&gt;"><g class="cls-2"><rect class="cls-3" x="73.32" y="-58.57" width="17.42" height="281.42" transform="translate(41.57 -26.67) rotate(24.57)"/><rect class="cls-4" x="89.17" y="-51.33" width="17.42" height="281.42" transform="translate(46.02 -32.6) rotate(24.57)"/><rect class="cls-5" x="57.48" y="-65.82" width="17.42" height="281.42" transform="translate(37.13 -20.74) rotate(24.57)"/><rect class="cls-6" x="41.64" y="-73.06" width="17.42" height="281.42" transform="translate(32.68 -14.81) rotate(24.57)"/><rect class="cls-7" x="25.8" y="-80.3" width="17.42" height="281.42" transform="translate(28.24 -8.88) rotate(24.57)"/><rect class="cls-8" x="152.54" y="-22.37" width="17.42" height="281.42" transform="translate(63.79 -56.32) rotate(24.57)"/><rect class="cls-9" x="168.38" y="-15.12" width="17.42" height="281.42" transform="translate(68.24 -62.26) rotate(24.57)"/><rect class="cls-10" x="136.7" y="-29.61" width="17.42" height="281.42" transform="translate(59.35 -50.39) rotate(24.57)"/><rect class="cls-11" x="120.85" y="-36.85" width="17.42" height="281.42" transform="translate(54.9 -44.46) rotate(24.57)"/><rect class="cls-12" x="105.01" y="-44.09" width="17.42" height="281.42" transform="translate(50.46 -38.53) rotate(24.57)"/><rect class="cls-13" x="231.75" y="13.84" width="17.42" height="281.42" transform="translate(86.02 -85.98) rotate(24.57)"/><rect class="cls-14" x="247.6" y="21.08" width="17.42" height="281.42" transform="translate(90.46 -91.91) rotate(24.57)"/><rect class="cls-15" x="215.91" y="6.6" width="17.42" height="281.42" transform="translate(81.57 -80.05) rotate(24.57)"/><rect class="cls-16" x="200.07" y="-0.64" width="17.42" height="281.42" transform="translate(77.13 -74.12) rotate(24.57)"/><rect class="cls-17" x="184.22" y="-7.88" width="17.42" height="281.42" transform="translate(72.68 -68.19) rotate(24.57)"/><rect class="cls-18" x="310.97" y="50.05" width="17.42" height="281.42" transform="translate(108.24 -115.63) rotate(24.57)"/><rect class="cls-19" x="326.81" y="57.29" width="17.42" height="281.42" transform="translate(112.68 -121.56) rotate(24.57)"/><rect class="cls-20" x="295.12" y="42.81" width="17.42" height="281.42" transform="translate(103.79 -109.7) rotate(24.57)"/><rect class="cls-21" x="279.28" y="35.57" width="17.42" height="281.42" transform="translate(99.35 -103.77) rotate(24.57)"/><rect class="cls-22" x="263.44" y="28.33" width="17.42" height="281.42" transform="translate(94.91 -97.84) rotate(24.57)"/></g></g></svg>