<svg xmlns="http://www.w3.org/2000/svg" viewBox="0 0 252.1 48.2"><defs><style>.cls-1{fill:#fcdc00;}.cls-2{fill:#54490a;}</style></defs><title>members-only-banner</title><g id="bg"><path id="ribbon" class="cls-1" d="M251,31.62c-5.22-1.65-9.58-4.56-14.21-7.28,3.44-3.06,6.28-6.7,10.25-9.18a1.52,1.52,0,0,0-.36-2.74c-6.84-2.31-13.82-2.2-20.92-1.78-.25-3-1.34-5.74-4.14-7.46-5.3-3.26-13-3-19-3.15A142.94,142.94,0,0,0,178.9,1.7C170.1,3,161.39,4.21,152.48,3.81c-8.72-.4-17.43-1.05-26.17-1.2-9.74-.16-19.44,1-29.17.7S78,1.69,68.4,1.68c-14.25,0-30.28-.63-43.54,5.42a1.11,1.11,0,0,0-1,.62,1.17,1.17,0,0,0-.2,1,72.37,72.37,0,0,0-.6,7.34A50.72,50.72,0,0,0,2.39,18.5a1.51,1.51,0,0,0,0,2.89c2.79.92,5.69,1.51,8.4,2.65,4,1.69,2.51,2.43,0,5.08C7.5,32.69,3.81,35.89.41,39.38c-.71.73-.5,2.34.66,2.51C10,43.21,19,44.29,27.88,45.58c4.82.69,11.57,2,15.37-1.94l0-.07a1.4,1.4,0,0,0,.39-1c0-1.95.12-3.9.05-5.84,4-.14,8-.2,12.06,0,8.94.39,17.81,1.63,26.7,2.56,36.19,3.78,73.1-1.3,109.26-3.49,4.64-.28,9.31-.54,14-.62-.09,3.07-.21,5.7,1.47,8.27.55,2.35,3.67,3.73,6.21,4.16,6.06,1,12.4.87,18.13-1.52,7.11-3,13-8.28,19.83-11.72A1.52,1.52,0,0,0,251,31.62Z"/></g><g id="text"><path class="cls-2" d="M43.11,13.63a1.53,1.53,0,0,0-2.13,0,19.62,19.62,0,0,0-2.83,3.55C36,15.83,33,14.31,32,17.65c-.81,2.82.61,6.38.93,9.2.21,1.9,3.21,1.92,3,0s-.69-3.94-.92-5.92a12.63,12.63,0,0,1-.14-2.39c.12-.08,2.69,1.86,3,2.05A1.52,1.52,0,0,0,40,20.05a17.34,17.34,0,0,1,2-3c1.31,2.38,1.22,5.88,1.49,8.36.22,1.9,3.22,1.92,3,0C46,21.55,46.13,16.49,43.11,13.63Z"/><path class="cls-2" d="M59.19,21.89c-1,.23-3.68,1.28-4.65.55-.59-.44-.81-1.79-.92-3.09h3.93a1.5,1.5,0,0,0,0-3H53.44c-.07-.74-.12-1.48-.12-2.23s0-.61.27-.72c1.28-.64,4.22,0,5.58,0,1.93,0,1.93-3,0-3-2.14,0-5.5-.78-7.42.52s-1.44,4.38-1.2,6.41c.25,2.2.17,5.6,1.94,7.26,1.94,1.81,5.28.68,7.5.15C61.86,24.34,61.07,21.44,59.19,21.89Z"/><path class="cls-2" d="M79.17,13.42c.15-1.63-2-1.83-2.79-.76-.48.66-1.84,3.14-2.69,3.22-1,.11-3.25-2.12-4-2.64a1.51,1.51,0,0,0-2.26,1.3q-.07,5.27,0,10.55a1.5,1.5,0,0,0,3,0c0-2.51,0-5,0-7.54a5.31,5.31,0,0,0,3.74,1.3,4,4,0,0,0,2.12-1.17,60.75,60.75,0,0,1,.85,7.11,1.5,1.5,0,0,0,3,0C80.13,21,78.82,17.26,79.17,13.42Z"/><path class="cls-2" d="M93,20.08A3.85,3.85,0,0,0,94.4,17.6c.33-2.45-1.79-4.09-4.07-4.15-6.5-.2-6.2,9.38-5.48,13.8a1.19,1.19,0,0,0,1.25,1.08,1.34,1.34,0,0,0,.77.38c3.39.54,7.76-.4,7.93-4.61A5,5,0,0,0,93,20.08Zm-1.67-3.23c.65,1.34-2.31,1.84-3,1.9a1.54,1.54,0,0,0-.5.15,5.63,5.63,0,0,1,.67-1.62C89,16.58,90.85,15.78,91.37,16.85Zm-3.71,9h0a23.53,23.53,0,0,1-.2-4.29,1.34,1.34,0,0,0,.92.23c1.48-.19,3.37.19,3.43,2C91.87,26,89.22,26.06,87.66,25.81Z"/><path class="cls-2" d="M110.62,26.32c-1.5-.89-3.05-.75-4.72-.6-.64.06-2.09.37-2.53-.1s-.18-1.56-.18-1.95c0-.6,0-1.2,0-1.8a28.67,28.67,0,0,1,3.82.09,1.5,1.5,0,0,0,1.5-1.5,1.54,1.54,0,0,0-1.5-1.5,28.33,28.33,0,0,0-3.57-.09c.11-1,.22-2,.29-3,1.88.07,3.76.09,5.64,0s1.94-3,0-3c-2.35.05-4.69,0-7-.09a1.52,1.52,0,0,0-1.5,1.5c-.13,3.7-1.13,7.49-.57,11.2a3.42,3.42,0,0,0,2.33,3.09c2,.67,4.62-.81,6.46.28A1.5,1.5,0,0,0,110.62,26.32Z"/><path class="cls-2" d="M129,24.53c-1.94-.55-2.26-2.66-3.41-4.08-.08-.1-.17-.18-.25-.28a5.91,5.91,0,0,0,2-2.69c.87-2.36,0-5-2.62-5.6a5.69,5.69,0,0,0-7,4.08c-1,3.8.7,7.83.75,11.64,0,1.93,3,1.94,3,0a46.81,46.81,0,0,0-.71-6c0-.07,0-.17,0-.25a.86.86,0,0,0,.17,0c2.36.09,2.64,1.75,3.73,3.43a5.9,5.9,0,0,0,3.5,2.61A1.51,1.51,0,0,0,129,24.53Zm-8.53-6.07a4.09,4.09,0,0,1,.89-3c1-1,3.6-1.21,3.31.68s-2.19,2.42-3.7,2.27A1.55,1.55,0,0,0,120.51,18.46Z"/><path class="cls-2" d="M159.75,12.66a1.32,1.32,0,0,0-1-.31c-7.29.31-8.93,14.9-1.52,16.14C165.55,29.88,167.1,14.64,159.75,12.66Zm-2.37,12.78c-3.06-1.24-2.31-9.13.92-10h0C163.52,15.63,161.79,27.23,157.38,25.44Z"/><path class="cls-2" d="M178.5,11.79l-.23,8.94A43.53,43.53,0,0,0,171,12.8c-.89-.71-2.69-.38-2.56,1.06A128.39,128.39,0,0,1,169,26.72a1.5,1.5,0,0,0,3,0c0-3.07-.08-6.13-.27-9.18a101.7,101.7,0,0,1,6.89,8.52c.84,1.1,2.53.12,2.56-1.06q.17-6.6.34-13.21C181.55,9.86,178.55,9.86,178.5,11.79Z"/><path class="cls-2" d="M195.44,23.44c-1.76,0-3.76.56-5.51.22-2-.39-1.74-2-1.72-3.77,0-3,.54-6,.61-9,0-1.93-3-1.93-3,0-.09,4-1.2,8.18-.42,12.15.95,4.76,6.46,3.49,10,3.39C197.37,26.38,197.38,23.38,195.44,23.44Z"/><path class="cls-2" d="M207.41,8.8c-.59.91-1.1,1.87-1.67,2.8a17.34,17.34,0,0,1-1.15,1.69,7.79,7.79,0,0,0-.76.91c-.08-.07-.4-.26-.65-.47-.45-.4-.86-.84-1.28-1.27a28.15,28.15,0,0,0-2.1-2.13c-1.48-1.22-3.61.89-2.13,2.12s2.92,3.67,4.8,4.5a34.6,34.6,0,0,0,.69,7.59c.38,1.89,3.27,1.09,2.89-.8a31.25,31.25,0,0,1-.58-7.09c2.08-1.31,3.34-4.52,4.53-6.33C211.06,8.7,208.47,7.19,207.41,8.8Z"/><path class="cls-2" d="M139.51,17.88c-.83-.29-2.54-.47-3.11-1.2-.39-.49-.15-1,.18-1.56.8-1.31,2.06-.47,3.07.16,1.64,1,3.15-1.56,1.52-2.59-2.63-1.64-5.69-2-7.31,1.17-1.13,2.18-.77,4.44,1.46,5.67,1.7.94,5.39,1.07,5.91,3.4A1.92,1.92,0,0,1,140,25c-1.2.55-2,0-2.54-1.11-.82-1.74-3.41-.22-2.59,1.52,2.2,4.69,9.65,2.84,9.42-2.33C144.14,20.43,141.78,18.68,139.51,17.88Z"/></g><g id="ribbon-2" data-name="ribbon"><path id="ribbon-3" data-name="ribbon" class="cls-2" d="M251,31.62c-5.22-1.65-9.58-4.56-14.21-7.28,3.44-3.06,6.28-6.7,10.25-9.18a1.52,1.52,0,0,0-.36-2.74c-6.84-2.31-13.82-2.2-20.92-1.78-.25-3-1.34-5.74-4.14-7.46-5.3-3.26-13-3-19-3.15A142.94,142.94,0,0,0,178.9,1.7C170.1,3,161.39,4.21,152.48,3.81c-8.72-.4-17.43-1.05-26.17-1.2-9.74-.16-19.44,1-29.17.7S78,1.69,68.4,1.68c-14.25,0-30.28-.63-43.54,5.42a1.11,1.11,0,0,0-1,.62,1.17,1.17,0,0,0-.2,1,72.37,72.37,0,0,0-.6,7.34A50.72,50.72,0,0,0,2.39,18.5a1.51,1.51,0,0,0,0,2.89c2.79.92,5.69,1.51,8.4,2.65,4,1.69,2.51,2.43,0,5.08C7.5,32.69,3.81,35.89.41,39.38c-.71.73-.5,2.34.66,2.51C10,43.21,19,44.29,27.88,45.58c4.82.69,11.57,2,15.37-1.94l0-.07a1.4,1.4,0,0,0,.39-1c0-1.95.12-3.9.05-5.84,4-.14,8-.2,12.06,0,8.94.39,17.81,1.63,26.7,2.56,36.19,3.78,73.1-1.3,109.26-3.49,4.64-.28,9.31-.54,14-.62-.09,3.07-.21,5.7,1.47,8.27.55,2.35,3.67,3.73,6.21,4.16,6.06,1,12.4.87,18.13-1.52,7.11-3,13-8.28,19.83-11.72A1.52,1.52,0,0,0,251,31.62Zm-42.28,7.62a19.94,19.94,0,0,1,0-4.09c2.51,0,5,.07,7.54.24C213.61,36.5,210.6,37.33,208.73,39.24ZM24.5,42.05c-6.61-.9-13.23-1.72-19.83-2.66,1.56-1.5,3.15-3,4.69-4.49,2.21-2.18,5.61-4.82,6.94-7.73,1.78-3.88-3.26-6-7.76-7.25A48.41,48.41,0,0,1,23.08,19a49.17,49.17,0,0,0,1.51,11.42A11.09,11.09,0,0,0,27,35.53C29.56,40,34.34,41.29,38.9,42.9,34.72,44.43,28.2,42.55,24.5,42.05Zm16.23-1.6c-2.71-.92-5.66-1.71-8-3.24,2.68-.11,5.35-.24,8-.36C40.79,38.05,40.77,39.25,40.73,40.45Zm64-3c-16.75,0-33.16-3.13-49.85-3.74-7.53-.27-15,.34-22.5.56-1.46.05-2.21.11-2.86-.41a1.37,1.37,0,0,0-.49-.54,12,12,0,0,1-1-1.88c-1.1-2.36-1.4-5.95-1.66-8.45a56.7,56.7,0,0,1,.27-13.34C37.78,4.58,50.87,5,62.93,4.76c14.24-.27,28.41,2.18,42.63,1.52a440.5,440.5,0,0,1,44.06.38c15.12.8,29.45-2.93,44.45-3.62a93.77,93.77,0,0,1,19.39.73c3.58.59,7.77,1.4,9.08,5.27.87,2.57.14,5.77-.19,8.35a45.86,45.86,0,0,0-.5,5.85c0,1.88.7,5.18-.16,6.91-1.87,3.71-7.78,2-11,2-4.43,0-8.86.13-13.29.33C166.5,33.93,135.7,37.42,104.69,37.41ZM217.85,45c-1.78-.12-4.4.12-6-.83-3.27-2,.17-3.75,2.43-4.92,3-1.53,7.52-2.77,9.17-5.94a2.34,2.34,0,0,0,.09-.24,7.55,7.55,0,0,0,1.19-3.48c.29-2.48,0-5,.07-7.46.09-2.86.76-5.67.95-8.52,5.8-.35,11.51-.5,17.14.83-3.45,2.81-6.26,6.27-9.8,9a1.5,1.5,0,0,0,.3,2.35c4.58,2.56,8.81,5.41,13.58,7.43C237.48,38.72,229.79,45.87,217.85,45Z"/></g></svg>